<svg xmlns="http://www.w3.org/2000/svg" xml:space="preserve" viewBox="44.61 49.69 251.73 143.68"><path d="M119.421 99.579c17.066 17.08 33.88 33.914 51.716 51.771 3.776-4.249 7.014-8.273 10.639-11.91 27.64-27.739 55.358-55.4 83.047-83.089 5.148-5.148 10.986-7.915 18.473-5.874 6.779 1.848 10.94 6.208 12.528 12.899 1.598 6.73-.59 12.336-5.472 17.201-28.8 28.701-57.528 57.476-86.281 86.224-6.835 6.834-13.652 13.686-20.513 20.493-8.075 8.012-17.978 8.156-26.043.11A68157.065 68157.065 0 0 1 50.413 80.291c-7.526-7.542-7.714-18.518-.663-25.465 7.138-7.033 17.866-6.878 25.551.707 14.706 14.515 29.255 29.19 44.12 44.046z"/></svg>