<svg width="16" height="17" fill="#000" xmlns="http://www.w3.org/2000/svg">
    <path d="M.407.532A.574.574 0 0 0 0 1.046c0 .19.111.377.28.47.066.037.195.046.758.057l.679.014.207.826c.176.702.328 1.472 1.009 5.107.441 2.354.82 4.33.842 4.392a.61.61 0 0 0 .35.326c.056.016.288.03.515.031.313.003.385.009.295.027-.471.092-.953.38-1.256.751a2.65 2.65 0 0 0-.411.806c-.023.088-.05.281-.059.427a2.119 2.119 0 0 0 1.178 2.016c.636.311 1.257.311 1.893 0a2.119 2.119 0 0 0 1.178-2.016 2.818 2.818 0 0 0-.059-.427 2.672 2.672 0 0 0-.411-.806 2.256 2.256 0 0 0-1.257-.751c-.069-.014 1.31-.023 3.336-.023 2.025 0 3.404.009 3.335.023a2.16 2.16 0 0 0-1.624 1.428 2.128 2.128 0 0 0 1.076 2.572c.635.311 1.257.311 1.892 0a2.117 2.117 0 0 0 1.178-2.016 1.889 1.889 0 0 0-.217-.827 2.145 2.145 0 0 0-1.509-1.157c-.089-.018-.018-.024.295-.027.228-.001.46-.015.516-.031a.608.608 0 0 0 .349-.326C14.403 11.788 16 3.284 16 3.166c0-.165-.137-.374-.307-.468-.073-.041-.564-.045-6.347-.052l-6.267-.007-.197-.793C2.628.823 2.626.816 2.528.705 2.364.518 2.379.521 1.387.515.895.513.454.52.407.532M14.811 3.78l-.701 3.74-.687 3.667H4.711L4.024 7.52l-.702-3.74-.014-.073h11.517l-.014.073m-9.044 9.64c.431.198.691.678.613 1.131-.101.592-.652.998-1.212.894a1.067 1.067 0 0 1-.88-.882c-.094-.502.23-1.028.733-1.192.186-.061.56-.037.746.049m7.466 0c.085.039.218.131.296.205a1.064 1.064 0 0 1-.26 1.722c-.645.315-1.381-.066-1.515-.784-.093-.502.23-1.028.734-1.192.186-.061.56-.037.745.049"/>
</svg>