<svg width="18" height="18" fill="none" xmlns="http://www.w3.org/2000/svg"><path d="M.615.05C.454.135.265.307.131.488L0 .667v.32c0 .307.004.328.093.47.054.087 1.603 1.66 3.787 3.846L7.574 9 3.88 12.698C1.696 14.883.147 16.456.093 16.543c-.089.142-.093.163-.093.471v.323l.143.189c.078.103.228.253.331.331L.663 18h.323c.308 0 .329-.004.471-.093.087-.054 1.66-1.603 3.845-3.787L9 10.426l3.697 3.694c2.186 2.184 3.759 3.733 3.846 3.787.142.089.163.093.471.093h.323l.189-.143c.103-.078.253-.228.331-.331l.143-.189v-.323c0-.308-.004-.329-.093-.471-.054-.087-1.603-1.66-3.787-3.846L10.426 9l3.694-3.697c2.184-2.186 3.733-3.759 3.787-3.846.089-.142.093-.163.093-.47v-.32l-.131-.179a1.545 1.545 0 0 0-.49-.439C17.31.014 17.201 0 16.987 0c-.278 0-.304.005-.444.093-.087.054-1.66 1.603-3.846 3.787L9 7.574 5.303 3.88C3.117 1.696 1.544.147 1.457.093 1.316.005 1.293 0 1.007.001.791.002.679.016.615.05" fill-rule="evenodd" fill="#000"/></svg>