<!-- Generated by IcoMoon.io -->
<svg version="1.1" xmlns="http://www.w3.org/2000/svg" width="1118" height="1024" viewBox="0 0 1118 1024">
    <title></title>
    <g id="icomoon-ignore">
    </g>
    <path fill="#000"
          d="M127.728 829.285c-110.318-32.49-136.268-103.962-125.499-207.232 15.139-145.186 53.882-285.553 153.924-386.91 54.098-54.808 156.459-61.979 237.047-90.64 63.827 81.244 152.465 30.419 229.204 40.389 26.833 3.487 57.094-18.376 85.555-29.275 6.315-2.419 13.217-11.946 17.194-10.565 80.86 28.111 185.158 35.151 237.034 90.858 115.72 124.264 157.912 287.874 155.741 460.269-0.582 46.223-13.39 78.859-58.447 97.375-49.552 20.363-96.68 46.798-146.648 65.933-85.876 32.887-86.456 31.37-137.843-53.29 23.713-13.99 47.421-27.977 71.13-41.963-191.055 53.792-379.892 50.856-568.823-14.578-1.152 5.939-2.305 11.878-3.457 17.816 21.227 10.78 42.455 21.56 63.681 32.354-32.132 88.396-40.568 92.883-122.849 63.176-27.468-9.917-54.517-20.992-86.942-33.717zM272.295 547.415c7.146 20.368 10.031 43.875 22.27 60.492 31.549 42.836 80.879 57.281 122.041 28.501 28.371-19.837 53.133-64.829 54.038-99.247 1.341-51.039-41.079-82.46-92.661-84.541-55.818-2.253-89.972 30.319-105.686 94.795zM657.357 598.682c29.009 44.434 72.655 64.16 118.8 42.036 28.107-13.475 60.82-49.527 62.576-77.266 1.991-31.462-20.538-76.577-46.84-94.131-23.629-15.77-71.484-12.487-100.322 0.663-48.43 22.084-54.358 69.95-34.215 128.698z"></path>
</svg>
