<!-- Generated by IcoMoon.io -->
<svg version="1.1" xmlns="http://www.w3.org/2000/svg" width="1074" height="1024" viewBox="0 0 1074 1024">
    <title></title>
    <g id="icomoon-ignore">
    </g>
    <path fill="#000"
          d="M852.573 12.317c130.919 47.321 191.375 142.269 195.416 270.692 4.763 151.322 4.886 303.036-0.031 454.349-5.344 164.438-104.71 271.542-270.876 280.548-164.33 8.907-329.9 7.624-494.296-1.079-146.581-7.759-246.253-105.832-253.823-251.485-8.779-168.889-8.771-338.945 0.12-507.827 7.662-145.536 98.842-246.476 243.409-253.978 190.979-9.911 383.174 3.612 580.081 8.78zM858.289 904.621c67.644-38.868 95.569-100.441 96.18-175.222 1.184-144.766 2.93-289.601-0.194-434.308-2.847-131.834-71.366-200.362-202.604-203.576-135.656-3.322-271.498-3.884-407.159-0.945-161.573 3.5-224.897 66.185-229.685 227.99-3.745 126.589-3.588 253.45-0.165 380.055 4.426 163.737 69.262 227.96 234.434 232.636 122.085 3.456 244.396 2.874 366.495-0.239 44.372-1.131 88.424-14.8 142.697-26.392z"></path>
    <path fill="#000"
          d="M408.223 276.967c142.938-59.755 269.044-28.205 346.295 82.657 69.506 99.745 61.276 235.846-19.529 325.227-73.883 81.722-166.279 108.061-270.165 79.191-104.052-28.915-172.115-99.808-189.213-207.847-18.727-118.33 25.565-212.098 132.613-279.227zM447.394 363.182c-106.673 55.76-107.884 220.351-12.402 286.16 66.483 45.822 159.794 40.766 219.002-13.716 60.481-55.652 71.859-145.254 27.515-216.697-47.248-76.122-129.692-98.414-234.115-55.748z"></path>
    <path fill="#000"
          d="M879.838 239.621c-10.258 46.243-37.011 70.903-78.004 56.143-20.237-7.287-44.599-36.619-44.925-56.344-0.331-19.997 22.574-50.608 42.521-58.643 45.537-18.344 70.579 10.374 80.408 58.844z"></path>
</svg>
