<!-- Generated by IcoMoon.io -->
<svg version="1.1" xmlns="http://www.w3.org/2000/svg" width="1135" height="1024" viewBox="0 0 1135 1024">
    <title></title>
    <g id="icomoon-ignore">
    </g>
    <path fill="#000"
          d="M891.243 967.409c-298.982 0-593.585 0-891.247 0 0-304.444 0-606.838 0-910.819 378.25 0 755.539 0 1135.008 0 0 302.599 0 604.075 0 910.819-79.94 0-159.661 0-243.761 0zM131.315 180.366c-5.247-1.658-13.953-6.108-15.211-4.55-14.572 18.065-3.068 107.41 15.232 118.909 138.128 86.785 276.24 173.604 415.107 259.196 9.558 5.891 28.461 7.324 37.471 1.793 141.463-86.823 282.14-174.932 422.451-263.609 8.062-5.095 15.583-17.321 16.227-26.716 2.062-30.046 0.765-60.322 0.765-96.624-13.259 8.182-21.491 13.22-29.682 18.324-133.484 83.169-267.405 165.652-399.985 250.236-20.931 13.353-34.311 12.033-53.752-0.307-133.92-84.99-268.522-168.91-408.622-256.652z"></path>
</svg>
