<svg xmlns="http://www.w3.org/2000/svg" xml:space="preserve" viewBox="4.62 7.36 467.37 484.42"><path d="M218.885.813c-26.025 2.83-50.092 11.975-71.106 27.022-7.752 5.551-22.386 19.487-28.766 27.396-14.803 18.348-24.238 37.971-29.159 60.65-2.671 12.306-3.397 36.312-1.528 50.514 3.204 24.344 11.67 46.291 25.083 65.021 9.385 13.105 27.187 29.951 42.186 39.92 3.106 2.064 5.643 3.989 5.637 4.277-.006.289-4.251 2.06-9.435 3.937-11.421 4.136-32.377 14.499-43.523 21.523-42.469 26.766-76.677 67.598-94.112 112.338C6.647 432.696.592 457.083.461 468.594c-.063 5.569.165 6.644 2.001 9.42 2.672 4.04 6.256 5.714 12.234 5.714 4.187 0 5.041-.279 7.517-2.453 3.881-3.408 4.92-5.78 6.711-15.327 8.286-44.167 27.022-80.465 57.921-112.21 35.361-36.33 73.273-55.825 122.303-62.891 12.864-1.854 38.661-1.866 51.411-.024 30.081 4.347 57.363 14.982 83.737 32.643 32.381 21.684 56.331 48.385 73.203 81.613 9.626 18.958 14.24 32.094 19.109 54.399 1.904 8.726 4.103 16.962 4.886 18.302 2.481 4.249 5.9 5.948 11.968 5.948 5.07 0 5.496-.145 8.572-2.921 6.086-5.492 6.469-8.702 3.015-25.31-16.043-77.145-59.932-132.996-132.048-168.037-6.855-3.331-15.897-7.371-20.093-8.978-4.197-1.607-7.527-3.018-7.4-3.134.126-.117 3.385-2.329 7.24-4.915 10.599-7.11 18.613-13.845 27.653-23.239 10.589-11.003 17.405-20.642 24.151-34.151 11.637-23.305 16.144-44.619 15.382-72.748-.589-21.783-4.412-37.469-13.784-56.558C344.615 39.873 303.492 9.079 256.968 1.98 246.918.446 227.684-.143 218.885.813m26.874 24.909c16.222 1.81 26.738 4.84 40.505 11.672 29.472 14.625 55.418 45.707 64.597 77.384 3.55 12.25 4.574 21.169 4.111 35.817-.578 18.277-3.072 28.765-10.605 44.584-21.272 44.674-70.672 73.047-119.919 68.875-26.908-2.28-50.272-11.749-70.216-28.459-25.766-21.588-41.376-53.274-42.577-86.426-.667-18.401 2.332-32.752 10.336-49.463 6.911-14.429 15.424-26.681 26.674-38.388 26.14-27.202 60.251-39.708 97.094-35.596" fill-rule="evenodd"/></svg>