<!-- Generated by IcoMoon.io -->
<svg version="1.1" xmlns="http://www.w3.org/2000/svg" width="982" height="1024" viewBox="0 0 982 1024">
<title></title>
<g id="icomoon-ignore">
</g>
<path fill="#000" d="M441.193 930.081c-279.911-137.929-419.018-365.064-440.719-669.489-2.867-40.225 6.747-71.607 41.682-95.862 28.151-19.545 52.2-44.904 78.876-66.696 32.646-26.669 55.247-26.414 82.905 3.301 62.278 66.914 123.725 134.614 184.761 202.665 23.099 25.754 21.753 52.825-2.803 77.464-33.68 33.794-66.745 68.352-102.38 99.984-17.84 15.835-22.061 30.681-13.719 51.801 38.101 96.455 104.706 164.407 202.748 198.844 12.212 4.29 33.845-1.526 43.825-10.64 34.166-31.201 64.719-66.321 97.344-99.259 32.233-32.542 56.389-34.058 89.268-4.561 65.086 58.388 129.724 117.286 193.93 176.641 33.018 30.523 33.88 54.081 5.246 88.704-15.177 18.352-33.884 34.485-45.839 54.673-34.63 58.478-85.216 70.967-148.662 62.845-91.173-11.673-179.872-30.531-266.463-70.415z"></path>
<path fill="#000" d="M831.519 294.246c-69.054-109.771-136.6-147.543-311.506-175.252 0-32.027 0-64.439 0-96.807 222.7-15.783 468.261 173.519 461.867 459.456-32.354 0-64.813 0-88.501 0-20.871-63.599-40.745-124.162-61.861-187.396z"></path>
<path fill="#000" d="M758.485 367.23c8.333 38.786 15.381 74.729 23.099 114.095-39.134 0-72.649 0-106.137 0-12.191-113.909-28.946-130.803-155.654-155.913 0-30.772 0-62.019 0-93.445 90.862-22.15 192.448 34.317 238.693 135.262z"></path>
</svg>
