<!-- Generated by IcoMoon.io -->
<svg version="1.1" xmlns="http://www.w3.org/2000/svg" width="838" height="1024" viewBox="0 0 838 1024">
<title></title>
<g id="icomoon-ignore">
</g>
<path fill="#000" d="M285.956 869.178c-64.373-76.764-131.134-148.447-189.078-226.66-99.016-133.653-110.416-280.456-33.697-426.928 76.099-145.286 203.573-220.364 367.23-215.354 166.449 5.095 290.999 88.061 357.877 241.894 64.732 148.897 43.014 291.982-59.234 418.241-97.475 120.365-199.753 236.842-300.012 354.949-2.366 2.786-5.844 4.626-11.101 8.68-43.457-50.883-86.931-101.781-131.982-154.824zM444.944 258.706c-7.441-0.824-14.887-2.401-22.324-2.357-60.088 0.354-106.127 26.208-133.538 79.706-27.427 53.53-22.873 106.995 13.594 154.815 37.341 48.968 88.096 67.147 148.93 54.503 62.441-12.979 110.151-68.283 113.821-131.477 4.326-74.508-36.481-129.749-120.481-155.19z"></path>
</svg>
