<!-- Generated by IcoMoon.io -->
<svg version="1.1" xmlns="http://www.w3.org/2000/svg" width="1034" height="1024" viewBox="0 0 1034 1024">
<title></title>
<g id="icomoon-ignore">
</g>
<path fill="#000" d="M533.968 195.391c93.308-125.437 201.817-143.024 329.587-73.218 36.585 19.989 93.34 3.062 151.608 3.062-19.356 27.314-37.918 53.508-60.426 85.273 26.48-4.219 51.37-8.183 75.701-12.060 1.451 5.759 4.467 13.020 3.302 13.769-86.573 55.571-82.282 147.664-98.481 233.78-78.142 415.423-570.627 632.474-935.261 403.652 111.292-2.613 210.293-18.934 299.76-92.32-90.015-19.485-158.667-56.76-191.141-147.038 23.538-2.248 43.569-4.161 79.464-7.589-92.617-46.23-154.384-104.403-160.396-205.968 19.007-1.444 36.433-2.768 62.263-4.729-55.519-83.331-86.136-166.486-38.355-258.656 69.66 49.669 132.712 106.629 205.895 143.461 74.291 37.39 158.579 54.915 239.578 81.497 12.943-60.422 23.43-109.378 36.903-162.913z"></path>
</svg>
